<svg xmlns="http://www.w3.org/2000/svg" xmlns:xlink="http://www.w3.org/1999/xlink" width="500" zoomAndPan="magnify" viewBox="0 0 375 374.999991" height="500" preserveAspectRatio="xMidYMid meet" version="1.0"><defs><g/><clipPath id="695a022188"><path d="M 30.429688 87.636719 L 301.929688 87.636719 L 301.929688 287.136719 L 30.429688 287.136719 Z M 30.429688 87.636719 " clip-rule="nonzero"/></clipPath><clipPath id="cb53881be7"><path d="M 83 224.390625 L 152 224.390625 L 152 291 L 83 291 Z M 83 224.390625 " clip-rule="nonzero"/></clipPath></defs><g clip-path="url(#695a022188)"><path fill="#000000" d="M 231.171875 287.152344 C 270.175781 287.152344 301.914062 255.429688 301.914062 216.425781 C 301.914062 177.425781 270.183594 145.707031 231.171875 145.707031 L 170.730469 145.707031 C 164.746094 112.734375 135.871094 87.636719 101.191406 87.636719 C 62.179688 87.636719 30.449219 119.359375 30.449219 158.363281 C 30.449219 197.359375 62.179688 229.082031 101.191406 229.082031 L 161.632812 229.082031 C 167.617188 262.054688 196.488281 287.152344 231.171875 287.152344 Z M 189.53125 229.082031 L 218.65625 229.082031 L 218.65625 201.875 L 101.191406 201.875 C 77.191406 201.875 57.660156 182.355469 57.660156 158.363281 C 57.660156 134.363281 77.191406 114.84375 101.191406 114.84375 C 120.789062 114.84375 137.398438 127.867188 142.832031 145.707031 L 113.699219 145.707031 L 113.699219 172.914062 L 231.171875 172.914062 C 255.171875 172.914062 274.703125 192.441406 274.703125 216.433594 C 274.703125 240.425781 255.175781 259.953125 231.171875 259.953125 C 211.574219 259.949219 194.964844 246.925781 189.53125 229.082031 Z M 189.53125 229.082031 " fill-opacity="1" fill-rule="nonzero"/></g><g fill="#000000" fill-opacity="1"><g transform="translate(213.865231, 132.661568)"><g><path d="M -0.421875 -38.75 L 5.65625 -39.15625 L 8.28125 -0.5625 L 2.203125 -0.15625 Z M -0.421875 -38.75 "/></g></g></g><g fill="#000000" fill-opacity="1"><g transform="translate(231.103962, 131.518488)"><g><path d="M 13.03125 -25.9375 L 7.46875 1.515625 L 2.109375 0.421875 L 9.78125 -37.5 L 17.265625 -35.984375 L 18.796875 -12.03125 L 23.390625 -34.734375 L 28.6875 -33.671875 L 21.015625 4.25 L 14.90625 3.015625 Z M 13.03125 -25.9375 "/></g></g></g><g fill="#000000" fill-opacity="1"><g transform="translate(259.973184, 138.701807)"><g><path d="M 17.734375 -14.71875 L 24.578125 -10.890625 L 21.875 -6.0625 L 15.03125 -9.890625 L 7.25 4.046875 L 1.921875 1.078125 L 20.78125 -32.703125 L 34.828125 -24.859375 L 32.125 -20.03125 L 23.40625 -24.90625 Z M 17.734375 -14.71875 "/></g></g></g><g fill="#000000" fill-opacity="1"><g transform="translate(281.897696, 152.508808)"><g><path d="M 28.09375 -26.6875 L 32.53125 -22.53125 L 6.046875 5.671875 L 1.609375 1.515625 Z M 28.09375 -26.6875 "/></g></g></g><g fill="#000000" fill-opacity="1"><g transform="translate(294.470098, 164.355939)"><g><path d="M 27.875 -8.125 L 3.984375 6.5 L 1.125 1.84375 L 34.125 -18.359375 L 38.109375 -11.859375 L 21.625 5.5625 L 41.375 -6.53125 L 44.1875 -1.921875 L 11.1875 18.28125 L 7.9375 12.96875 Z M 27.875 -8.125 "/></g></g></g><g fill="#000000" fill-opacity="1"><g transform="translate(308.706277, 190.980073)"><g><path d="M 37.765625 -8.65625 L 39.46875 -2.796875 L 2.3125 7.96875 L 0.609375 2.109375 Z M 37.765625 -8.65625 "/></g></g></g><g fill="#000000" fill-opacity="1"><g transform="translate(313.27685, 207.831449)"><g><path d="M 38.6875 -0.875 L 39.328125 17.90625 L 33.796875 18.09375 L 33.578125 11.75 L 0.4375 12.875 L 0.234375 6.796875 L 33.375 5.671875 L 33.15625 -0.6875 Z M 38.6875 -0.875 "/></g></g></g><g fill="#000000" fill-opacity="1"><g transform="translate(313.365578, 233.778013)"><g><path d="M 10.25 11.046875 L 37.21875 10.546875 L 35.515625 16.6875 L 17.296875 16.4375 L 33.046875 25.625 L 31.484375 31.234375 L 8.625 16.890625 L -3.734375 13.46875 L -2.109375 7.625 Z M 10.25 11.046875 "/></g></g></g><g clip-path="url(#cb53881be7)"><path fill="#000000" d="M 150.953125 276.605469 L 146.429688 255.679688 L 146.121094 254.242188 C 143.242188 244.496094 130.699219 241.523438 123.910156 249.113281 C 123.808594 249.113281 123.707031 249.113281 123.601562 249.113281 L 123.601562 248.085938 C 123.601562 245.726562 121.75 243.882812 119.386719 243.882812 L 118.359375 243.882812 L 118.359375 239.574219 C 118.359375 237.109375 119.902344 235.058594 122.164062 234.238281 C 125.144531 233.316406 127.097656 230.546875 127.097656 227.46875 L 127.097656 225.210938 C 127.097656 224.800781 126.789062 224.390625 126.277344 224.390625 C 125.761719 224.390625 125.554688 224.699219 125.554688 225.210938 C 125.554688 226.953125 126.070312 231.367188 121.648438 232.800781 C 118.667969 233.726562 116.714844 236.496094 116.714844 239.574219 L 116.714844 243.882812 L 115.683594 243.882812 C 113.320312 243.882812 111.46875 245.726562 111.46875 248.085938 L 111.46875 249.113281 C 111.367188 249.113281 111.265625 249.113281 111.160156 249.113281 C 104.375 241.523438 91.832031 244.394531 88.953125 254.242188 L 84.117188 276.605469 C 82.78125 282.554688 86.277344 288.503906 92.140625 290.148438 C 98 291.890625 104.167969 288.609375 106.121094 282.964844 L 107.664062 278.65625 L 127.203125 278.65625 L 128.742188 282.964844 C 130.800781 288.609375 136.867188 291.890625 142.726562 290.148438 C 148.691406 288.503906 152.289062 282.554688 150.953125 276.605469 Z M 113.011719 247.984375 C 113.011719 246.546875 114.246094 245.316406 115.683594 245.316406 L 119.285156 245.316406 C 120.722656 245.316406 121.957031 246.546875 121.957031 247.984375 L 121.957031 248.496094 L 113.011719 248.496094 Z M 142.417969 288.710938 C 137.382812 290.148438 132.035156 287.375 130.285156 282.453125 L 128.539062 277.632812 C 128.433594 277.324219 128.125 277.117188 127.820312 277.117188 L 107.253906 277.117188 C 106.945312 277.117188 106.636719 277.324219 106.535156 277.632812 L 104.785156 282.453125 C 103.039062 287.375 97.792969 290.148438 92.652344 288.710938 C 87.511719 287.273438 84.53125 282.144531 85.660156 277.015625 L 90.183594 256.089844 L 90.492188 254.753906 C 93.0625 245.933594 104.476562 243.574219 110.339844 250.445312 C 110.542969 250.652344 110.75 250.753906 111.058594 250.753906 C 115.171875 250.242188 120.003906 250.242188 124.117188 250.753906 C 124.425781 250.753906 124.632812 250.652344 124.835938 250.445312 C 130.800781 243.472656 142.214844 245.933594 144.679688 254.652344 L 149.410156 277.015625 C 150.542969 282.144531 147.558594 287.273438 142.417969 288.710938 Z M 142.417969 288.710938 " fill-opacity="1" fill-rule="nonzero"/></g><path fill="#000000" d="M 113.730469 273.324219 L 107.972656 273.324219 C 107.5625 273.324219 107.152344 273.628906 107.152344 274.144531 C 107.152344 274.65625 107.460938 274.964844 107.972656 274.964844 L 113.730469 274.964844 C 114.144531 274.964844 114.554688 274.65625 114.554688 274.144531 C 114.554688 273.628906 114.144531 273.324219 113.730469 273.324219 Z M 113.730469 273.324219 " fill-opacity="1" fill-rule="nonzero"/><path fill="#000000" d="M 127.097656 273.324219 L 121.339844 273.324219 C 120.929688 273.324219 120.519531 273.628906 120.519531 274.144531 C 120.519531 274.65625 120.828125 274.964844 121.339844 274.964844 L 127.097656 274.964844 C 127.511719 274.964844 127.921875 274.65625 127.921875 274.144531 C 127.921875 273.628906 127.511719 273.324219 127.097656 273.324219 Z M 127.097656 273.324219 " fill-opacity="1" fill-rule="nonzero"/><path fill="#000000" d="M 133.78125 259.988281 C 135.632812 259.988281 137.175781 258.449219 137.175781 256.601562 C 137.175781 254.753906 135.632812 253.214844 133.78125 253.214844 C 131.929688 253.214844 130.390625 254.753906 130.390625 256.601562 C 130.492188 258.449219 131.929688 259.988281 133.78125 259.988281 Z M 133.78125 254.753906 C 134.808594 254.753906 135.632812 255.574219 135.632812 256.601562 C 135.632812 257.628906 134.808594 258.449219 133.78125 258.449219 C 132.753906 258.449219 131.929688 257.628906 131.929688 256.601562 C 132.035156 255.574219 132.753906 254.753906 133.78125 254.753906 Z M 133.78125 254.753906 " fill-opacity="1" fill-rule="nonzero"/><path fill="#000000" d="M 133.78125 263.78125 C 131.929688 263.78125 130.390625 265.320312 130.390625 267.167969 C 130.390625 269.015625 131.929688 270.554688 133.78125 270.554688 C 135.632812 270.554688 137.175781 269.015625 137.175781 267.167969 C 137.175781 265.320312 135.632812 263.78125 133.78125 263.78125 Z M 133.78125 268.910156 C 132.753906 268.910156 131.929688 268.089844 131.929688 267.066406 C 131.929688 266.039062 132.753906 265.21875 133.78125 265.21875 C 134.808594 265.21875 135.632812 266.039062 135.632812 267.066406 C 135.632812 268.089844 134.808594 268.910156 133.78125 268.910156 Z M 133.78125 268.910156 " fill-opacity="1" fill-rule="nonzero"/><path fill="#000000" d="M 139.027344 258.550781 C 137.175781 258.550781 135.632812 260.089844 135.632812 261.9375 C 135.632812 263.78125 137.175781 265.320312 139.027344 265.320312 C 140.875 265.320312 142.417969 263.78125 142.417969 261.9375 C 142.417969 259.988281 140.875 258.550781 139.027344 258.550781 Z M 139.027344 263.679688 C 137.996094 263.679688 137.175781 262.859375 137.175781 261.832031 C 137.175781 260.808594 137.996094 259.988281 139.027344 259.988281 C 140.054688 259.988281 140.875 260.808594 140.875 261.832031 C 140.875 262.859375 140.054688 263.679688 139.027344 263.679688 Z M 139.027344 263.679688 " fill-opacity="1" fill-rule="nonzero"/><path fill="#000000" d="M 131.929688 261.832031 C 131.929688 259.988281 130.390625 258.449219 128.539062 258.449219 C 126.6875 258.449219 125.144531 259.988281 125.144531 261.832031 C 125.144531 263.679688 126.6875 265.21875 128.539062 265.21875 C 130.390625 265.21875 131.929688 263.679688 131.929688 261.832031 Z M 128.539062 263.679688 C 127.511719 263.679688 126.6875 262.859375 126.6875 261.832031 C 126.6875 260.808594 127.511719 259.988281 128.539062 259.988281 C 129.566406 259.988281 130.390625 260.808594 130.390625 261.832031 C 130.390625 262.859375 129.566406 263.679688 128.539062 263.679688 Z M 128.539062 263.679688 " fill-opacity="1" fill-rule="nonzero"/><path fill="#000000" d="M 105.300781 261.117188 L 100.777344 261.117188 L 100.777344 256.601562 C 100.777344 256.191406 100.46875 255.78125 99.953125 255.78125 C 99.542969 255.78125 99.132812 256.089844 99.132812 256.601562 L 99.132812 261.117188 L 94.605469 261.117188 C 94.195312 261.117188 93.785156 261.421875 93.785156 261.9375 C 93.785156 262.347656 94.09375 262.757812 94.605469 262.757812 L 99.132812 262.757812 L 99.132812 267.269531 C 99.132812 267.679688 99.4375 268.089844 99.953125 268.089844 C 100.363281 268.089844 100.777344 267.785156 100.777344 267.269531 L 100.777344 262.652344 L 105.300781 262.652344 C 105.710938 262.652344 106.121094 262.347656 106.121094 261.832031 C 106.019531 261.421875 105.710938 261.117188 105.300781 261.117188 Z M 105.300781 261.117188 " fill-opacity="1" fill-rule="nonzero"/></svg>