<svg xmlns="http://www.w3.org/2000/svg" xmlns:xlink="http://www.w3.org/1999/xlink" width="500" zoomAndPan="magnify" viewBox="0 0 375 374.999991" height="500" preserveAspectRatio="xMidYMid meet" version="1.0"><defs><g/><clipPath id="0d7a0feebb"><path d="M 30.429688 87.636719 L 301.929688 87.636719 L 301.929688 287.136719 L 30.429688 287.136719 Z M 30.429688 87.636719 " clip-rule="nonzero"/></clipPath><clipPath id="6c7d9a1a70"><path d="M 83 224.390625 L 152 224.390625 L 152 291 L 83 291 Z M 83 224.390625 " clip-rule="nonzero"/></clipPath></defs><g clip-path="url(#0d7a0feebb)"><path fill="#ffffff" d="M 231.34375 287.375 C 270.382812 287.375 302.148438 255.617188 302.148438 216.570312 C 302.148438 177.527344 270.390625 145.773438 231.34375 145.773438 L 170.851562 145.773438 C 164.859375 112.761719 135.960938 87.636719 101.253906 87.636719 C 62.207031 87.636719 30.449219 119.394531 30.449219 158.441406 C 30.449219 197.480469 62.207031 229.242188 101.253906 229.242188 L 161.746094 229.242188 C 167.738281 262.25 196.632812 287.375 231.34375 287.375 Z M 189.667969 229.242188 L 218.820312 229.242188 L 218.820312 202.003906 L 101.253906 202.003906 C 77.234375 202.003906 57.683594 182.460938 57.683594 158.441406 C 57.683594 134.414062 77.234375 114.875 101.253906 114.875 C 120.867188 114.875 137.492188 127.910156 142.929688 145.773438 L 113.773438 145.773438 L 113.773438 173.007812 L 231.34375 173.007812 C 255.363281 173.007812 274.914062 192.558594 274.914062 216.578125 C 274.914062 240.597656 255.371094 260.144531 231.34375 260.144531 C 211.730469 260.140625 195.105469 247.101562 189.667969 229.242188 Z M 189.667969 229.242188 " fill-opacity="1" fill-rule="nonzero"/></g><g fill="#ffffff" fill-opacity="1"><g transform="translate(213.865231, 132.661568)"><g><path d="M -0.421875 -38.75 L 5.65625 -39.15625 L 8.28125 -0.5625 L 2.203125 -0.15625 Z M -0.421875 -38.75 "/></g></g></g><g fill="#ffffff" fill-opacity="1"><g transform="translate(231.103962, 131.518488)"><g><path d="M 13.03125 -25.9375 L 7.46875 1.515625 L 2.109375 0.421875 L 9.78125 -37.5 L 17.265625 -35.984375 L 18.796875 -12.03125 L 23.390625 -34.734375 L 28.6875 -33.671875 L 21.015625 4.25 L 14.90625 3.015625 Z M 13.03125 -25.9375 "/></g></g></g><g fill="#ffffff" fill-opacity="1"><g transform="translate(259.973184, 138.701807)"><g><path d="M 17.734375 -14.71875 L 24.578125 -10.890625 L 21.875 -6.0625 L 15.03125 -9.890625 L 7.25 4.046875 L 1.921875 1.078125 L 20.78125 -32.703125 L 34.828125 -24.859375 L 32.125 -20.03125 L 23.40625 -24.90625 Z M 17.734375 -14.71875 "/></g></g></g><g fill="#ffffff" fill-opacity="1"><g transform="translate(281.897696, 152.508808)"><g><path d="M 28.09375 -26.6875 L 32.53125 -22.53125 L 6.046875 5.671875 L 1.609375 1.515625 Z M 28.09375 -26.6875 "/></g></g></g><g fill="#ffffff" fill-opacity="1"><g transform="translate(294.470098, 164.355939)"><g><path d="M 27.875 -8.125 L 3.984375 6.5 L 1.125 1.84375 L 34.125 -18.359375 L 38.109375 -11.859375 L 21.625 5.5625 L 41.375 -6.53125 L 44.1875 -1.921875 L 11.1875 18.28125 L 7.9375 12.96875 Z M 27.875 -8.125 "/></g></g></g><g fill="#ffffff" fill-opacity="1"><g transform="translate(308.706277, 190.980073)"><g><path d="M 37.765625 -8.65625 L 39.46875 -2.796875 L 2.3125 7.96875 L 0.609375 2.109375 Z M 37.765625 -8.65625 "/></g></g></g><g fill="#ffffff" fill-opacity="1"><g transform="translate(313.27685, 207.831449)"><g><path d="M 38.6875 -0.875 L 39.328125 17.90625 L 33.796875 18.09375 L 33.578125 11.75 L 0.4375 12.875 L 0.234375 6.796875 L 33.375 5.671875 L 33.15625 -0.6875 Z M 38.6875 -0.875 "/></g></g></g><g fill="#ffffff" fill-opacity="1"><g transform="translate(313.365578, 233.778013)"><g><path d="M 10.25 11.046875 L 37.21875 10.546875 L 35.515625 16.6875 L 17.296875 16.4375 L 33.046875 25.625 L 31.484375 31.234375 L 8.625 16.890625 L -3.734375 13.46875 L -2.109375 7.625 Z M 10.25 11.046875 "/></g></g></g><g clip-path="url(#6c7d9a1a70)"><path fill="#ffffff" d="M 151.113281 276.851562 L 146.578125 255.824219 L 146.269531 254.382812 C 143.382812 244.589844 130.808594 241.601562 124.007812 249.230469 C 123.90625 249.230469 123.800781 249.230469 123.699219 249.230469 L 123.699219 248.199219 C 123.699219 245.828125 121.84375 243.972656 119.472656 243.972656 L 118.441406 243.972656 L 118.441406 239.644531 C 118.441406 237.171875 119.988281 235.109375 122.257812 234.285156 C 125.246094 233.355469 127.203125 230.574219 127.203125 227.480469 L 127.203125 225.214844 C 127.203125 224.804688 126.894531 224.390625 126.378906 224.390625 C 125.863281 224.390625 125.65625 224.699219 125.65625 225.214844 C 125.65625 226.96875 126.171875 231.398438 121.742188 232.839844 C 118.753906 233.769531 116.792969 236.550781 116.792969 239.644531 L 116.792969 243.972656 L 115.761719 243.972656 C 113.394531 243.972656 111.539062 245.828125 111.539062 248.199219 L 111.539062 249.230469 C 111.433594 249.230469 111.332031 249.230469 111.226562 249.230469 C 104.425781 241.601562 91.851562 244.488281 88.964844 254.382812 L 84.121094 276.851562 C 82.78125 282.828125 86.285156 288.804688 92.160156 290.453125 C 98.035156 292.207031 104.21875 288.910156 106.179688 283.242188 L 107.722656 278.910156 L 127.304688 278.910156 L 128.851562 283.242188 C 130.914062 288.910156 136.996094 292.207031 142.867188 290.453125 C 148.847656 288.804688 152.453125 282.828125 151.113281 276.851562 Z M 113.082031 248.09375 C 113.082031 246.652344 114.320312 245.414062 115.761719 245.414062 L 119.371094 245.414062 C 120.8125 245.414062 122.050781 246.652344 122.050781 248.09375 L 122.050781 248.609375 L 113.082031 248.609375 Z M 142.558594 289.011719 C 137.507812 290.453125 132.148438 287.671875 130.398438 282.726562 L 128.644531 277.882812 C 128.542969 277.570312 128.234375 277.367188 127.925781 277.367188 L 107.3125 277.367188 C 107.003906 277.367188 106.695312 277.570312 106.589844 277.882812 L 104.839844 282.726562 C 103.085938 287.671875 97.828125 290.453125 92.675781 289.011719 C 87.523438 287.570312 84.535156 282.414062 85.667969 277.261719 L 90.203125 256.238281 L 90.511719 254.898438 C 93.089844 246.035156 104.527344 243.664062 110.402344 250.570312 C 110.609375 250.773438 110.816406 250.878906 111.125 250.878906 C 115.246094 250.363281 120.09375 250.363281 124.214844 250.878906 C 124.523438 250.878906 124.730469 250.773438 124.9375 250.570312 C 130.914062 243.558594 142.355469 246.035156 144.828125 254.792969 L 149.566406 277.261719 C 150.703125 282.414062 147.714844 287.570312 142.558594 289.011719 Z M 142.558594 289.011719 " fill-opacity="1" fill-rule="nonzero"/></g><path fill="#ffffff" d="M 113.804688 273.550781 L 108.035156 273.550781 C 107.621094 273.550781 107.207031 273.863281 107.207031 274.375 C 107.207031 274.890625 107.519531 275.203125 108.035156 275.203125 L 113.804688 275.203125 C 114.21875 275.203125 114.628906 274.890625 114.628906 274.375 C 114.628906 273.863281 114.21875 273.550781 113.804688 273.550781 Z M 113.804688 273.550781 " fill-opacity="1" fill-rule="nonzero"/><path fill="#ffffff" d="M 127.203125 273.550781 L 121.433594 273.550781 C 121.019531 273.550781 120.605469 273.863281 120.605469 274.375 C 120.605469 274.890625 120.917969 275.203125 121.433594 275.203125 L 127.203125 275.203125 C 127.617188 275.203125 128.027344 274.890625 128.027344 274.375 C 128.027344 273.863281 127.617188 273.550781 127.203125 273.550781 Z M 127.203125 273.550781 " fill-opacity="1" fill-rule="nonzero"/><path fill="#ffffff" d="M 133.902344 260.152344 C 135.757812 260.152344 137.304688 258.609375 137.304688 256.753906 C 137.304688 254.898438 135.757812 253.351562 133.902344 253.351562 C 132.046875 253.351562 130.5 254.898438 130.5 256.753906 C 130.605469 258.609375 132.046875 260.152344 133.902344 260.152344 Z M 133.902344 254.898438 C 134.933594 254.898438 135.757812 255.722656 135.757812 256.753906 C 135.757812 257.785156 134.933594 258.609375 133.902344 258.609375 C 132.871094 258.609375 132.046875 257.785156 132.046875 256.753906 C 132.148438 255.722656 132.871094 254.898438 133.902344 254.898438 Z M 133.902344 254.898438 " fill-opacity="1" fill-rule="nonzero"/><path fill="#ffffff" d="M 133.902344 263.96875 C 132.046875 263.96875 130.5 265.511719 130.5 267.367188 C 130.5 269.222656 132.046875 270.769531 133.902344 270.769531 C 135.757812 270.769531 137.304688 269.222656 137.304688 267.367188 C 137.304688 265.511719 135.757812 263.96875 133.902344 263.96875 Z M 133.902344 269.121094 C 132.871094 269.121094 132.046875 268.296875 132.046875 267.265625 C 132.046875 266.234375 132.871094 265.410156 133.902344 265.410156 C 134.933594 265.410156 135.757812 266.234375 135.757812 267.265625 C 135.757812 268.296875 134.933594 269.121094 133.902344 269.121094 Z M 133.902344 269.121094 " fill-opacity="1" fill-rule="nonzero"/><path fill="#ffffff" d="M 139.160156 258.710938 C 137.304688 258.710938 135.757812 260.257812 135.757812 262.113281 C 135.757812 263.96875 137.304688 265.511719 139.160156 265.511719 C 141.015625 265.511719 142.558594 263.96875 142.558594 262.113281 C 142.558594 260.152344 141.015625 258.710938 139.160156 258.710938 Z M 139.160156 263.863281 C 138.128906 263.863281 137.304688 263.039062 137.304688 262.007812 C 137.304688 260.976562 138.128906 260.152344 139.160156 260.152344 C 140.1875 260.152344 141.015625 260.976562 141.015625 262.007812 C 141.015625 263.039062 140.1875 263.863281 139.160156 263.863281 Z M 139.160156 263.863281 " fill-opacity="1" fill-rule="nonzero"/><path fill="#ffffff" d="M 132.046875 262.007812 C 132.046875 260.152344 130.5 258.609375 128.644531 258.609375 C 126.789062 258.609375 125.246094 260.152344 125.246094 262.007812 C 125.246094 263.863281 126.789062 265.410156 128.644531 265.410156 C 130.5 265.410156 132.046875 263.863281 132.046875 262.007812 Z M 128.644531 263.863281 C 127.617188 263.863281 126.789062 263.039062 126.789062 262.007812 C 126.789062 260.976562 127.617188 260.152344 128.644531 260.152344 C 129.675781 260.152344 130.5 260.976562 130.5 262.007812 C 130.5 263.039062 129.675781 263.863281 128.644531 263.863281 Z M 128.644531 263.863281 " fill-opacity="1" fill-rule="nonzero"/><path fill="#ffffff" d="M 105.355469 261.289062 L 100.820312 261.289062 L 100.820312 256.753906 C 100.820312 256.339844 100.507812 255.929688 99.996094 255.929688 C 99.582031 255.929688 99.167969 256.238281 99.167969 256.753906 L 99.167969 261.289062 L 94.636719 261.289062 C 94.222656 261.289062 93.808594 261.597656 93.808594 262.113281 C 93.808594 262.523438 94.121094 262.9375 94.636719 262.9375 L 99.167969 262.9375 L 99.167969 267.472656 C 99.167969 267.882812 99.480469 268.296875 99.996094 268.296875 C 100.40625 268.296875 100.820312 267.988281 100.820312 267.472656 L 100.820312 262.832031 L 105.355469 262.832031 C 105.765625 262.832031 106.179688 262.523438 106.179688 262.007812 C 106.074219 261.597656 105.765625 261.289062 105.355469 261.289062 Z M 105.355469 261.289062 " fill-opacity="1" fill-rule="nonzero"/></svg>